<svg width="101" height="101" viewBox="0 0 101 101" fill="none" xmlns="http://www.w3.org/2000/svg">
<path d="M3.48276 0V0C1.55928 0 0 1.55928 0 3.48276V3.48276H3.48276V0Z" fill="white"/>
<path d="M6.96552 0H3.48276V3.48276H6.96552V0Z" fill="white"/>
<path d="M10.4483 0H6.96552V3.48276H10.4483V0Z" fill="white"/>
<path d="M13.931 0H10.4483V3.48276H13.931V0Z" fill="white"/>
<path d="M17.4138 0H13.931V3.48276H17.4138V0Z" fill="white"/>
<path d="M20.8966 0H17.4138V3.48276H20.8966V0Z" fill="white"/>
<path d="M24.3793 3.48276C24.3793 1.55928 22.82 0 20.8966 0V0V3.48276H24.3793V3.48276Z" fill="white"/>
<path d="M31.3448 0H29.6034C28.6417 0 27.8621 0.779642 27.8621 1.74138V1.74138C27.8621 2.70312 28.6417 3.48276 29.6034 3.48276H31.3448V0Z" fill="white"/>
<path d="M34.8276 0H31.3448V3.48276H34.8276V0Z" fill="white"/>
<path d="M38.3103 0H34.8276V3.48276H38.3103V0Z" fill="white"/>
<path d="M41.7931 1.74138C41.7931 0.779642 41.0135 0 40.0517 0H38.3103V3.48276H40.0517C41.0135 3.48276 41.7931 2.70312 41.7931 1.74138V1.74138Z" fill="white"/>
<path d="M48.7586 0V0C46.8351 0 45.2759 1.55928 45.2759 3.48276V3.48276H48.7586V0Z" fill="white"/>
<path d="M52.2414 3.48276C52.2414 1.55929 50.6821 0 48.7586 0V0V3.48276H52.2414V3.48276Z" fill="white"/>
<path d="M59.2069 1.74138C59.2069 0.779641 58.4273 0 57.4655 0V0C56.5038 0 55.7241 0.779642 55.7241 1.74138V3.48276H59.2069V1.74138Z" fill="white"/>
<path d="M66.1724 1.74138C66.1724 0.779642 65.3928 0 64.431 0V0C63.4693 0 62.6897 0.779642 62.6897 1.74138V1.74138C62.6897 2.70312 63.4693 3.48276 64.431 3.48276V3.48276C65.3928 3.48276 66.1724 2.70312 66.1724 1.74138V1.74138Z" fill="white"/>
<path d="M73.1379 1.74138C73.1379 0.779642 72.3583 0 71.3966 0V0C70.4348 0 69.6552 0.779642 69.6552 1.74138V1.74138C69.6552 2.70312 70.4348 3.48276 71.3966 3.48276V3.48276C72.3583 3.48276 73.1379 2.70312 73.1379 1.74138V1.74138Z" fill="white"/>
<path d="M80.1034 0V0C78.18 0 76.6207 1.55928 76.6207 3.48276V3.48276H80.1034V0Z" fill="white"/>
<path d="M83.5862 0H80.1034V3.48276H83.5862V0Z" fill="white"/>
<path d="M87.069 0H83.5862V3.48276H87.069V0Z" fill="white"/>
<path d="M90.5517 0H87.069V3.48276H90.5517V0Z" fill="white"/>
<path d="M94.0345 0H90.5517V3.48276H94.0345V0Z" fill="white"/>
<path d="M97.5172 0H94.0345V3.48276H97.5172V0Z" fill="white"/>
<path d="M101 3.48276C101 1.55928 99.4407 0 97.5172 0V0V3.48276H101V3.48276Z" fill="white"/>
<path d="M3.48276 3.48276H0V6.96552H3.48276V3.48276Z" fill="white"/>
<path d="M24.3793 3.48276H20.8966V6.96552H24.3793V3.48276Z" fill="white"/>
<path d="M34.8276 3.48276H31.3448V3.48276C31.3448 5.40623 32.9041 6.96552 34.8276 6.96552V6.96552V3.48276Z" fill="white"/>
<path d="M48.7586 3.48276H45.2759V6.96552V6.96552C47.1993 6.96552 48.7586 5.40623 48.7586 3.48276V3.48276Z" fill="white"/>
<path d="M55.7241 3.48276H52.2414V3.48276C52.2414 5.40623 53.8007 6.96552 55.7241 6.96552V6.96552V3.48276Z" fill="white"/>
<path d="M59.2069 3.48276H55.7241V6.96552H59.2069V3.48276Z" fill="white"/>
<path d="M80.1034 3.48276H76.6207V6.96552H80.1034V3.48276Z" fill="white"/>
<path d="M101 3.48276H97.5172V6.96552H101V3.48276Z" fill="white"/>
<path d="M3.48276 6.96552H0V10.4483H3.48276V6.96552Z" fill="white"/>
<path d="M10.4483 6.96552V6.96552C8.5248 6.96552 6.96552 8.5248 6.96552 10.4483V10.4483H10.4483V6.96552Z" fill="white"/>
<path d="M13.931 6.96552H10.4483V10.4483H13.931V6.96552Z" fill="white"/>
<path d="M17.4138 10.4483C17.4138 8.5248 15.8545 6.96552 13.931 6.96552V6.96552V10.4483H17.4138V10.4483Z" fill="white"/>
<path d="M24.3793 6.96552H20.8966V10.4483H24.3793V6.96552Z" fill="white"/>
<path d="M38.3103 10.4483C38.3103 8.5248 36.7511 6.96552 34.8276 6.96552V6.96552V10.4483H38.3103V10.4483Z" fill="white"/>
<path d="M45.2759 6.96552V6.96552C43.3524 6.96552 41.7931 8.5248 41.7931 10.4483V10.4483V10.4483C43.7166 10.4483 45.2759 8.88899 45.2759 6.96552V6.96552Z" fill="white"/>
<path d="M62.6897 8.7069C62.6897 7.74516 61.91 6.96552 60.9483 6.96552H59.2069V10.4483H60.9483C61.91 10.4483 62.6897 9.66863 62.6897 8.7069V8.7069Z" fill="white"/>
<path d="M69.6552 6.96552V6.96552C67.7317 6.96552 66.1724 8.5248 66.1724 10.4483V10.4483H69.6552V6.96552Z" fill="white"/>
<path d="M73.1379 8.7069C73.1379 7.74516 72.3583 6.96552 71.3966 6.96552H69.6552V10.4483H71.3966C72.3583 10.4483 73.1379 9.66863 73.1379 8.7069V8.7069Z" fill="white"/>
<path d="M80.1034 6.96552H76.6207V10.4483H80.1034V6.96552Z" fill="white"/>
<path d="M87.069 6.96552V6.96552C85.1455 6.96552 83.5862 8.52481 83.5862 10.4483V10.4483H87.069V6.96552Z" fill="white"/>
<path d="M90.5517 6.96552H87.069V10.4483H90.5517V6.96552Z" fill="white"/>
<path d="M94.0345 10.4483C94.0345 8.52481 92.4752 6.96552 90.5517 6.96552V6.96552V10.4483H94.0345V10.4483Z" fill="white"/>
<path d="M101 6.96552H97.5172V10.4483H101V6.96552Z" fill="white"/>
<path d="M3.48276 10.4483H0V13.931H3.48276V10.4483Z" fill="white"/>
<path d="M10.4483 10.4483H6.96552V13.931H10.4483V10.4483Z" fill="white"/>
<path d="M13.931 10.4483H10.4483V13.931H13.931V10.4483Z" fill="white"/>
<path d="M17.4138 10.4483H13.931V13.931H17.4138V10.4483Z" fill="white"/>
<path d="M24.3793 10.4483H20.8966V13.931H24.3793V10.4483Z" fill="white"/>
<path d="M31.3448 12.1897C31.3448 11.2279 30.5652 10.4483 29.6034 10.4483V10.4483C28.6417 10.4483 27.8621 11.2279 27.8621 12.1897V12.1897C27.8621 13.1514 28.6417 13.931 29.6034 13.931V13.931C30.5652 13.931 31.3448 13.1514 31.3448 12.1897V12.1897Z" fill="white"/>
<path d="M38.3103 10.4483H34.8276V13.931H38.3103V10.4483Z" fill="white"/>
<path d="M41.7931 10.4483H38.3103V13.931H41.7931V10.4483Z" fill="white"/>
<path d="M52.2414 12.1897C52.2414 11.2279 51.4617 10.4483 50.5 10.4483V10.4483C49.5383 10.4483 48.7586 11.2279 48.7586 12.1897V13.931H52.2414V12.1897Z" fill="white"/>
<path d="M59.2069 10.4483V10.4483C57.2834 10.4483 55.7241 12.0076 55.7241 13.931V13.931H59.2069V10.4483Z" fill="white"/>
<path d="M69.6552 10.4483H66.1724V13.931H69.6552V10.4483Z" fill="white"/>
<path d="M80.1034 10.4483H76.6207V13.931H80.1034V10.4483Z" fill="white"/>
<path d="M87.069 10.4483H83.5862V13.931H87.069V10.4483Z" fill="white"/>
<path d="M90.5517 10.4483H87.069V13.931H90.5517V10.4483Z" fill="white"/>
<path d="M94.0345 10.4483H90.5517V13.931H94.0345V10.4483Z" fill="white"/>
<path d="M101 10.4483H97.5172V13.931H101V10.4483Z" fill="white"/>
<path d="M3.48276 13.931H0V17.4138H3.48276V13.931Z" fill="white"/>
<path d="M10.4483 13.931H6.96552V13.931C6.96552 15.8545 8.5248 17.4138 10.4483 17.4138V17.4138V13.931Z" fill="white"/>
<path d="M13.931 13.931H10.4483V17.4138H13.931V13.931Z" fill="white"/>
<path d="M17.4138 13.931H13.931V17.4138V17.4138C15.8545 17.4138 17.4138 15.8545 17.4138 13.931V13.931Z" fill="white"/>
<path d="M24.3793 13.931H20.8966V17.4138H24.3793V13.931Z" fill="white"/>
<path d="M38.3103 13.931H34.8276V17.4138H38.3103V13.931Z" fill="white"/>
<path d="M41.7931 13.931H38.3103V17.4138H41.7931V13.931Z" fill="white"/>
<path d="M48.7586 13.931V13.931C46.8351 13.931 45.2759 15.4903 45.2759 17.4138V17.4138H48.7586V13.931Z" fill="white"/>
<path d="M52.2414 13.931H48.7586V17.4138H52.2414V13.931Z" fill="white"/>
<path d="M55.7241 13.931H52.2414V17.4138H55.7241V13.931Z" fill="white"/>
<path d="M59.2069 13.931H55.7241V17.4138H59.2069V13.931Z" fill="white"/>
<path d="M69.6552 13.931H66.1724V17.4138H69.6552V13.931Z" fill="white"/>
<path d="M80.1034 13.931H76.6207V17.4138H80.1034V13.931Z" fill="white"/>
<path d="M87.069 13.931H83.5862V13.931C83.5862 15.8545 85.1455 17.4138 87.069 17.4138V17.4138V13.931Z" fill="white"/>
<path d="M90.5517 13.931H87.069V17.4138H90.5517V13.931Z" fill="white"/>
<path d="M94.0345 13.931H90.5517V17.4138V17.4138C92.4752 17.4138 94.0345 15.8545 94.0345 13.931V13.931Z" fill="white"/>
<path d="M101 13.931H97.5172V17.4138H101V13.931Z" fill="white"/>
<path d="M3.48276 17.4138H0V20.8966H3.48276V17.4138Z" fill="white"/>
<path d="M24.3793 17.4138H20.8966V20.8966H24.3793V17.4138Z" fill="white"/>
<path d="M31.3448 17.4138V17.4138C29.4214 17.4138 27.8621 18.9731 27.8621 20.8966V20.8966H31.3448V17.4138Z" fill="white"/>
<path d="M34.8276 17.4138H31.3448V20.8966H34.8276V17.4138Z" fill="white"/>
<path d="M38.3103 17.4138H34.8276V20.8966H38.3103V17.4138Z" fill="white"/>
<path d="M45.2759 17.4138H41.7931V20.8966H45.2759V17.4138Z" fill="white"/>
<path d="M48.7586 17.4138H45.2759V20.8966H48.7586V17.4138Z" fill="white"/>
<path d="M52.2414 17.4138H48.7586V20.8966H52.2414V17.4138Z" fill="white"/>
<path d="M55.7241 17.4138H52.2414V20.8966H55.7241V17.4138Z" fill="white"/>
<path d="M62.6897 20.8966C62.6897 18.9731 61.1304 17.4138 59.2069 17.4138V17.4138V20.8966H62.6897V20.8966Z" fill="white"/>
<path d="M69.6552 17.4138H66.1724V20.8966H69.6552V17.4138Z" fill="white"/>
<path d="M73.1379 20.8966C73.1379 18.9731 71.5786 17.4138 69.6552 17.4138V17.4138V20.8966H73.1379V20.8966Z" fill="white"/>
<path d="M80.1034 17.4138H76.6207V20.8966H80.1034V17.4138Z" fill="white"/>
<path d="M101 17.4138H97.5172V20.8966H101V17.4138Z" fill="white"/>
<path d="M3.48276 20.8966H0V20.8966C0 22.82 1.55928 24.3793 3.48276 24.3793V24.3793V20.8966Z" fill="white"/>
<path d="M6.96552 20.8966H3.48276V24.3793H6.96552V20.8966Z" fill="white"/>
<path d="M10.4483 20.8966H6.96552V24.3793H10.4483V20.8966Z" fill="white"/>
<path d="M13.931 20.8966H10.4483V24.3793H13.931V20.8966Z" fill="white"/>
<path d="M17.4138 20.8966H13.931V24.3793H17.4138V20.8966Z" fill="white"/>
<path d="M20.8966 20.8966H17.4138V24.3793H20.8966V20.8966Z" fill="white"/>
<path d="M24.3793 20.8966H20.8966V24.3793V24.3793C22.82 24.3793 24.3793 22.82 24.3793 20.8966V20.8966Z" fill="white"/>
<path d="M31.3448 20.8966H27.8621V20.8966C27.8621 22.82 29.4214 24.3793 31.3448 24.3793V24.3793V20.8966Z" fill="white"/>
<path d="M38.3103 20.8966H34.8276V24.3793V24.3793C36.7511 24.3793 38.3103 22.82 38.3103 20.8966V20.8966Z" fill="white"/>
<path d="M45.2759 20.8966H41.7931V20.8966C41.7931 22.82 43.3524 24.3793 45.2759 24.3793V24.3793V20.8966Z" fill="white"/>
<path d="M52.2414 20.8966H48.7586V24.3793H52.2414V20.8966Z" fill="white"/>
<path d="M59.2069 20.8966H55.7241V22.6379C55.7241 23.5997 56.5038 24.3793 57.4655 24.3793V24.3793C58.4273 24.3793 59.2069 23.5997 59.2069 22.6379V20.8966Z" fill="white"/>
<path d="M66.1724 20.8966H62.6897V22.6379C62.6897 23.5997 63.4693 24.3793 64.431 24.3793V24.3793C65.3928 24.3793 66.1724 23.5997 66.1724 22.6379V20.8966Z" fill="white"/>
<path d="M73.1379 20.8966H69.6552V22.6379C69.6552 23.5997 70.4348 24.3793 71.3966 24.3793V24.3793C72.3583 24.3793 73.1379 23.5997 73.1379 22.6379V20.8966Z" fill="white"/>
<path d="M80.1034 20.8966H76.6207V20.8966C76.6207 22.82 78.18 24.3793 80.1034 24.3793V24.3793V20.8966Z" fill="white"/>
<path d="M83.5862 20.8966H80.1034V24.3793H83.5862V20.8966Z" fill="white"/>
<path d="M87.069 20.8966H83.5862V24.3793H87.069V20.8966Z" fill="white"/>
<path d="M90.5517 20.8966H87.069V24.3793H90.5517V20.8966Z" fill="white"/>
<path d="M94.0345 20.8966H90.5517V24.3793H94.0345V20.8966Z" fill="white"/>
<path d="M97.5172 20.8966H94.0345V24.3793H97.5172V20.8966Z" fill="white"/>
<path d="M101 20.8966H97.5172V24.3793V24.3793C99.4407 24.3793 101 22.82 101 20.8966V20.8966Z" fill="white"/>
<path d="M34.8276 24.3793H31.3448V27.8621H34.8276V24.3793Z" fill="white"/>
<path d="M48.7586 24.3793H45.2759V27.8621H48.7586V24.3793Z" fill="white"/>
<path d="M52.2414 24.3793H48.7586V27.8621H52.2414V24.3793Z" fill="white"/>
<path d="M20.8966 27.8621V27.8621C18.9731 27.8621 17.4138 29.4214 17.4138 31.3448V31.3448H20.8966V27.8621Z" fill="white"/>
<path d="M24.3793 31.3448C24.3793 29.4214 22.82 27.8621 20.8966 27.8621V27.8621V31.3448H24.3793V31.3448Z" fill="white"/>
<path d="M31.3448 27.8621V27.8621C29.4214 27.8621 27.8621 29.4214 27.8621 31.3448V31.3448H31.3448V27.8621Z" fill="white"/>
<path d="M34.8276 27.8621H31.3448V31.3448H34.8276V27.8621Z" fill="white"/>
<path d="M48.7586 27.8621H45.2759V31.3448H48.7586V27.8621Z" fill="white"/>
<path d="M52.2414 27.8621H48.7586V31.3448H52.2414V27.8621Z" fill="white"/>
<path d="M55.7241 27.8621H52.2414V31.3448H55.7241V27.8621Z" fill="white"/>
<path d="M59.2069 27.8621H55.7241V31.3448H59.2069V27.8621Z" fill="white"/>
<path d="M62.6897 31.3448C62.6897 29.4214 61.1304 27.8621 59.2069 27.8621V27.8621V31.3448H62.6897V31.3448Z" fill="white"/>
<path d="M69.6552 27.8621V27.8621C67.7317 27.8621 66.1724 29.4214 66.1724 31.3448V31.3448H69.6552V27.8621Z" fill="white"/>
<path d="M73.1379 27.8621H69.6552V31.3448H73.1379V27.8621Z" fill="white"/>
<path d="M76.6207 31.3448C76.6207 29.4214 75.0614 27.8621 73.1379 27.8621V27.8621V31.3448H76.6207V31.3448Z" fill="white"/>
<path d="M83.5862 29.6034C83.5862 28.6417 82.8066 27.8621 81.8448 27.8621V27.8621C80.8831 27.8621 80.1034 28.6417 80.1034 29.6035V31.3448H81.8448C82.8066 31.3448 83.5862 30.5652 83.5862 29.6034V29.6034Z" fill="white"/>
<path d="M90.5517 29.6035C90.5517 28.6417 89.7721 27.8621 88.8103 27.8621V27.8621C87.8486 27.8621 87.069 28.6417 87.069 29.6035V31.3448H90.5517V29.6035Z" fill="white"/>
<path d="M101 29.6034C101 28.6417 100.22 27.8621 99.2586 27.8621V27.8621C98.2969 27.8621 97.5172 28.6417 97.5172 29.6034V31.3448H101V29.6034Z" fill="white"/>
<path d="M13.931 31.3448V31.3448C12.0076 31.3448 10.4483 32.9041 10.4483 34.8276V34.8276H13.931V31.3448Z" fill="white"/>
<path d="M17.4138 31.3448H13.931V34.8276H17.4138V31.3448Z" fill="white"/>
<path d="M27.8621 31.3448H24.3793V34.8276H27.8621V31.3448Z" fill="white"/>
<path d="M31.3448 31.3448H27.8621V34.8276V34.8276C29.7855 34.8276 31.3448 33.2683 31.3448 31.3448V31.3448Z" fill="white"/>
<path d="M38.3103 34.8276C38.3103 32.9041 36.7511 31.3448 34.8276 31.3448V31.3448V34.8276H38.3103V34.8276Z" fill="white"/>
<path d="M45.2759 31.3448V31.3448C43.3524 31.3448 41.7931 32.9041 41.7931 34.8276V34.8276H45.2759V31.3448Z" fill="white"/>
<path d="M48.7586 31.3448H45.2759V34.8276H48.7586V31.3448Z" fill="white"/>
<path d="M52.2414 31.3448H48.7586V34.8276H52.2414V31.3448Z" fill="white"/>
<path d="M59.2069 31.3448H55.7241V34.8276H59.2069V31.3448Z" fill="white"/>
<path d="M62.6897 31.3448H59.2069V34.8276H62.6897V31.3448Z" fill="white"/>
<path d="M66.1724 31.3448H62.6897V34.8276H66.1724V31.3448Z" fill="white"/>
<path d="M76.6207 31.3448H73.1379V34.8276H76.6207V31.3448Z" fill="white"/>
<path d="M80.1034 31.3448H76.6207V34.8276H80.1034V31.3448Z" fill="white"/>
<path d="M90.5517 31.3448H87.069V34.8276H90.5517V31.3448Z" fill="white"/>
<path d="M94.0345 31.3448H90.5517V34.8276H94.0345V31.3448Z" fill="white"/>
<path d="M97.5172 31.3448H94.0345V34.8276H97.5172V31.3448Z" fill="white"/>
<path d="M101 31.3448H97.5172V34.8276H101V31.3448Z" fill="white"/>
<path d="M3.48276 36.569C3.48276 35.6072 2.70312 34.8276 1.74138 34.8276V34.8276C0.779642 34.8276 0 35.6072 0 36.569V38.3103H3.48276V36.569Z" fill="white"/>
<path d="M10.4483 34.8276V34.8276C8.5248 34.8276 6.96552 36.3869 6.96552 38.3103V38.3103H10.4483V34.8276Z" fill="white"/>
<path d="M20.8966 34.8276H17.4138V38.3103H20.8966V34.8276Z" fill="white"/>
<path d="M24.3793 34.8276H20.8966V38.3103H24.3793V34.8276Z" fill="white"/>
<path d="M27.8621 34.8276H24.3793V38.3103V38.3103C26.3028 38.3103 27.8621 36.7511 27.8621 34.8276V34.8276Z" fill="white"/>
<path d="M38.3103 34.8276H34.8276V38.3103H38.3103V34.8276Z" fill="white"/>
<path d="M41.7931 34.8276H38.3103V38.3103H41.7931V34.8276Z" fill="white"/>
<path d="M52.2414 34.8276H48.7586V38.3103H52.2414V34.8276Z" fill="white"/>
<path d="M59.2069 34.8276H55.7241V38.3103H59.2069V34.8276Z" fill="white"/>
<path d="M62.6897 34.8276H59.2069V38.3103H62.6897V34.8276Z" fill="white"/>
<path d="M69.6552 38.3103C69.6552 36.3869 68.0959 34.8276 66.1724 34.8276V34.8276V38.3103H69.6552V38.3103Z" fill="white"/>
<path d="M76.6207 34.8276H73.1379V38.3103H76.6207V34.8276Z" fill="white"/>
<path d="M80.1034 34.8276H76.6207V38.3103H80.1034V34.8276Z" fill="white"/>
<path d="M83.5862 34.8276H80.1034V38.3103H83.5862V34.8276Z" fill="white"/>
<path d="M87.069 34.8276H83.5862V38.3103H87.069V34.8276Z" fill="white"/>
<path d="M97.5172 34.8276H94.0345V34.8276C94.0345 36.7511 95.5938 38.3103 97.5172 38.3103V38.3103V34.8276Z" fill="white"/>
<path d="M101 34.8276H97.5172V38.3103H101V34.8276Z" fill="white"/>
<path d="M3.48276 38.3103H0V38.3103C0 40.2338 1.55928 41.7931 3.48276 41.7931V41.7931V38.3103Z" fill="white"/>
<path d="M10.4483 38.3103H6.96552V41.7931H10.4483V38.3103Z" fill="white"/>
<path d="M13.931 38.3103H10.4483V41.7931H13.931V38.3103Z" fill="white"/>
<path d="M17.4138 38.3103H13.931V41.7931H17.4138V38.3103Z" fill="white"/>
<path d="M38.3103 38.3103H34.8276V38.3103C34.8276 40.2338 36.3869 41.7931 38.3103 41.7931V41.7931V38.3103Z" fill="white"/>
<path d="M41.7931 38.3103H38.3103V41.7931H41.7931V38.3103Z" fill="white"/>
<path d="M52.2414 38.3103H48.7586V41.7931H52.2414V38.3103Z" fill="white"/>
<path d="M55.7241 38.3103H52.2414V41.7931H55.7241V38.3103Z" fill="white"/>
<path d="M59.2069 38.3103H55.7241V41.7931H59.2069V38.3103Z" fill="white"/>
<path d="M62.6897 38.3103H59.2069V41.7931H62.6897V38.3103Z" fill="white"/>
<path d="M69.6552 38.3103H66.1724V41.7931H69.6552V38.3103Z" fill="white"/>
<path d="M73.1379 38.3103H69.6552V41.7931H73.1379V38.3103Z" fill="white"/>
<path d="M76.6207 38.3103H73.1379V41.7931V41.7931C75.0614 41.7931 76.6207 40.2338 76.6207 38.3103V38.3103Z" fill="white"/>
<path d="M87.069 38.3103H83.5862V41.7931H87.069V38.3103Z" fill="white"/>
<path d="M101 38.3103H97.5172V41.7931V41.7931C99.4407 41.7931 101 40.2338 101 38.3103V38.3103Z" fill="white"/>
<path d="M6.96552 41.7931H3.48276V41.7931C3.48276 43.7166 5.04204 45.2759 6.96552 45.2759V45.2759V41.7931Z" fill="white"/>
<path d="M10.4483 41.7931H6.96552V45.2759H10.4483V41.7931Z" fill="white"/>
<path d="M20.8966 41.7931H17.4138V41.7931C17.4138 43.7166 18.9731 45.2759 20.8966 45.2759V45.2759V41.7931Z" fill="white"/>
<path d="M24.3793 41.7931H20.8966V45.2759H24.3793V41.7931Z" fill="white"/>
<path d="M27.8621 41.7931H24.3793V45.2759H27.8621V41.7931Z" fill="white"/>
<path d="M31.3448 45.2759C31.3448 43.3524 29.7855 41.7931 27.8621 41.7931V41.7931V45.2759H31.3448V45.2759Z" fill="white"/>
<path d="M45.2759 45.2759C45.2759 43.3524 43.7166 41.7931 41.7931 41.7931V41.7931V45.2759H45.2759V45.2759Z" fill="white"/>
<path d="M52.2414 41.7931H48.7586V45.2759H52.2414V41.7931Z" fill="white"/>
<path d="M62.6897 41.7931H59.2069V45.2759H62.6897V41.7931Z" fill="white"/>
<path d="M66.1724 41.7931H62.6897V45.2759H66.1724V41.7931Z" fill="white"/>
<path d="M69.6552 41.7931H66.1724V45.2759H69.6552V41.7931Z" fill="white"/>
<path d="M73.1379 41.7931H69.6552V45.2759V45.2759C71.5786 45.2759 73.1379 43.7166 73.1379 41.7931V41.7931Z" fill="white"/>
<path d="M83.5862 41.7931H81.8448C80.8831 41.7931 80.1034 42.5727 80.1034 43.5345V43.5345C80.1034 44.4962 80.8831 45.2759 81.8448 45.2759H83.5862V41.7931Z" fill="white"/>
<path d="M87.069 41.7931H83.5862V45.2759H87.069V41.7931Z" fill="white"/>
<path d="M97.5172 41.7931V41.7931C95.5938 41.7931 94.0345 43.3524 94.0345 45.2759V45.2759H97.5172V41.7931Z" fill="white"/>
<path d="M13.931 47.0172C13.931 46.0555 13.1514 45.2759 12.1897 45.2759H10.4483V48.7586H12.1897C13.1514 48.7586 13.931 47.979 13.931 47.0172V47.0172Z" fill="white"/>
<path d="M27.8621 45.2759H24.3793V48.7586H27.8621V45.2759Z" fill="white"/>
<path d="M34.8276 45.2759H31.3448V48.7586H34.8276V45.2759Z" fill="white"/>
<path d="M38.3103 45.2759H34.8276V48.7586H38.3103V45.2759Z" fill="white"/>
<path d="M41.7931 45.2759H38.3103V48.7586H41.7931V45.2759Z" fill="white"/>
<path d="M48.7586 45.2759H45.2759V48.7586H48.7586V45.2759Z" fill="white"/>
<path d="M52.2414 45.2759H48.7586V48.7586H52.2414V45.2759Z" fill="white"/>
<path d="M59.2069 45.2759H57.4655C56.5038 45.2759 55.7241 46.0555 55.7241 47.0172V47.0172C55.7241 47.979 56.5038 48.7586 57.4655 48.7586H59.2069V45.2759Z" fill="white"/>
<path d="M62.6897 45.2759H59.2069V48.7586H62.6897V45.2759Z" fill="white"/>
<path d="M90.5517 45.2759H87.069V45.2759C87.069 47.1993 88.6283 48.7586 90.5517 48.7586V48.7586V45.2759Z" fill="white"/>
<path d="M94.0345 45.2759H90.5517V48.7586H94.0345V45.2759Z" fill="white"/>
<path d="M97.5172 45.2759H94.0345V48.7586H97.5172V45.2759Z" fill="white"/>
<path d="M3.48276 50.5C3.48276 49.5383 2.70312 48.7586 1.74138 48.7586V48.7586C0.779643 48.7586 0 49.5383 0 50.5V50.5C0 51.4617 0.779643 52.2414 1.74138 52.2414V52.2414C2.70312 52.2414 3.48276 51.4617 3.48276 50.5V50.5Z" fill="white"/>
<path d="M10.4483 48.7586V48.7586C8.5248 48.7586 6.96552 50.3179 6.96552 52.2414V52.2414H10.4483V48.7586Z" fill="white"/>
<path d="M24.3793 48.7586V48.7586C22.4558 48.7586 20.8966 50.3179 20.8966 52.2414V52.2414H24.3793V48.7586Z" fill="white"/>
<path d="M31.3448 48.7586H27.8621V52.2414H31.3448V48.7586Z" fill="white"/>
<path d="M38.3103 48.7586H34.8276V52.2414H38.3103V48.7586Z" fill="white"/>
<path d="M45.2759 48.7586H41.7931V52.2414H45.2759V48.7586Z" fill="white"/>
<path d="M48.7586 48.7586H45.2759V52.2414H48.7586V48.7586Z" fill="white"/>
<path d="M52.2414 48.7586H48.7586V52.2414H52.2414V48.7586Z" fill="white"/>
<path d="M62.6897 48.7586H59.2069V52.2414H62.6897V48.7586Z" fill="white"/>
<path d="M66.1724 48.7586H62.6897V52.2414H66.1724V48.7586Z" fill="white"/>
<path d="M69.6552 52.2414C69.6552 50.3179 68.0959 48.7586 66.1724 48.7586V48.7586V52.2414H69.6552V52.2414Z" fill="white"/>
<path d="M76.6207 50.5C76.6207 49.5383 75.841 48.7586 74.8793 48.7586V48.7586C73.9176 48.7586 73.1379 49.5383 73.1379 50.5V52.2414H76.6207V50.5Z" fill="white"/>
<path d="M83.5862 50.5C83.5862 49.5383 82.8066 48.7586 81.8448 48.7586V48.7586C80.8831 48.7586 80.1034 49.5383 80.1034 50.5V52.2414H83.5862V50.5Z" fill="white"/>
<path d="M94.0345 48.7586H90.5517V52.2414H94.0345V48.7586Z" fill="white"/>
<path d="M101 52.2414C101 50.3179 99.4407 48.7586 97.5172 48.7586V48.7586V52.2414H101V52.2414Z" fill="white"/>
<path d="M10.4483 52.2414H6.96552V55.7241H10.4483V52.2414Z" fill="white"/>
<path d="M20.8966 52.2414V52.2414C18.9731 52.2414 17.4138 53.8007 17.4138 55.7241V55.7241H20.8966V52.2414Z" fill="white"/>
<path d="M27.8621 52.2414H24.3793V55.7241H27.8621V52.2414Z" fill="white"/>
<path d="M34.8276 52.2414H31.3448V55.7241H34.8276V52.2414Z" fill="white"/>
<path d="M38.3103 52.2414H34.8276V55.7241H38.3103V52.2414Z" fill="white"/>
<path d="M45.2759 52.2414H41.7931V55.7241H45.2759V52.2414Z" fill="white"/>
<path d="M48.7586 52.2414H45.2759V55.7241H48.7586V52.2414Z" fill="white"/>
<path d="M55.7241 53.9828C55.7241 53.021 54.9445 52.2414 53.9828 52.2414H52.2414V53.9828C52.2414 54.9445 53.021 55.7241 53.9828 55.7241V55.7241C54.9445 55.7241 55.7241 54.9445 55.7241 53.9828V53.9828Z" fill="white"/>
<path d="M62.6897 52.2414H59.2069V55.7241H62.6897V52.2414Z" fill="white"/>
<path d="M66.1724 52.2414H62.6897V55.7241H66.1724V52.2414Z" fill="white"/>
<path d="M73.1379 52.2414H69.6552V52.2414C69.6552 54.1649 71.2145 55.7241 73.1379 55.7241V55.7241V52.2414Z" fill="white"/>
<path d="M76.6207 52.2414H73.1379V55.7241H76.6207V52.2414Z" fill="white"/>
<path d="M83.5862 52.2414H80.1034V55.7241H83.5862V52.2414Z" fill="white"/>
<path d="M90.5517 52.2414V52.2414C88.6283 52.2414 87.069 53.8007 87.069 55.7241V55.7241H90.5517V52.2414Z" fill="white"/>
<path d="M94.0345 52.2414H90.5517V55.7241H94.0345V52.2414Z" fill="white"/>
<path d="M101 52.2414H97.5172V55.7241V55.7241C99.4407 55.7241 101 54.1649 101 52.2414V52.2414Z" fill="white"/>
<path d="M6.96552 55.7241V55.7241C5.04204 55.7241 3.48276 57.2834 3.48276 59.2069V59.2069H6.96552V55.7241Z" fill="white"/>
<path d="M13.931 59.2069C13.931 57.2834 12.3717 55.7241 10.4483 55.7241V55.7241V59.2069H13.931V59.2069Z" fill="white"/>
<path d="M20.8966 55.7241H17.4138V59.2069H20.8966V55.7241Z" fill="white"/>
<path d="M24.3793 55.7241H20.8966V59.2069H24.3793V55.7241Z" fill="white"/>
<path d="M27.8621 55.7241H24.3793V59.2069H27.8621V55.7241Z" fill="white"/>
<path d="M31.3448 55.7241H27.8621V59.2069H31.3448V55.7241Z" fill="white"/>
<path d="M34.8276 55.7241H31.3448V59.2069H34.8276V55.7241Z" fill="white"/>
<path d="M41.7931 55.7241H38.3103V59.2069H41.7931V55.7241Z" fill="white"/>
<path d="M48.7586 55.7241H45.2759V59.2069H48.7586V55.7241Z" fill="white"/>
<path d="M62.6897 55.7241H59.2069V59.2069H62.6897V55.7241Z" fill="white"/>
<path d="M66.1724 55.7241H62.6897V59.2069H66.1724V55.7241Z" fill="white"/>
<path d="M80.1034 55.7241H76.6207V57.4655C76.6207 58.4273 77.4003 59.2069 78.3621 59.2069V59.2069C79.3238 59.2069 80.1034 58.4273 80.1034 57.4655V55.7241Z" fill="white"/>
<path d="M87.069 55.7241H83.5862V59.2069H87.069V55.7241Z" fill="white"/>
<path d="M94.0345 55.7241H90.5517V55.7241C90.5517 57.6476 92.111 59.2069 94.0345 59.2069V59.2069V55.7241Z" fill="white"/>
<path d="M97.5172 55.7241H94.0345V59.2069H97.5172V55.7241Z" fill="white"/>
<path d="M3.48276 59.2069V59.2069C1.55928 59.2069 0 60.7662 0 62.6897V62.6897H3.48276V59.2069Z" fill="white"/>
<path d="M10.4483 59.2069H6.96552V62.6897H10.4483V59.2069Z" fill="white"/>
<path d="M17.4138 59.2069H13.931V62.6897H17.4138V59.2069Z" fill="white"/>
<path d="M20.8966 59.2069H17.4138V62.6897H20.8966V59.2069Z" fill="white"/>
<path d="M27.8621 59.2069H24.3793V62.6897H27.8621V59.2069Z" fill="white"/>
<path d="M38.3103 59.2069H34.8276V60.9483C34.8276 61.91 35.6072 62.6897 36.569 62.6897V62.6897C37.5307 62.6897 38.3103 61.91 38.3103 60.9483V59.2069Z" fill="white"/>
<path d="M45.2759 59.2069H41.7931V59.2069C41.7931 61.1304 43.3524 62.6897 45.2759 62.6897V62.6897V59.2069Z" fill="white"/>
<path d="M48.7586 59.2069H45.2759V62.6897H48.7586V59.2069Z" fill="white"/>
<path d="M55.7241 59.2069V59.2069C53.8007 59.2069 52.2414 60.7662 52.2414 62.6897V62.6897H55.7241V59.2069Z" fill="white"/>
<path d="M59.2069 59.2069H55.7241V62.6897H59.2069V59.2069Z" fill="white"/>
<path d="M62.6897 59.2069H59.2069V62.6897H62.6897V59.2069Z" fill="white"/>
<path d="M66.1724 59.2069H62.6897V62.6897H66.1724V59.2069Z" fill="white"/>
<path d="M69.6552 62.6897C69.6552 60.7662 68.0959 59.2069 66.1724 59.2069V59.2069V62.6897H69.6552V62.6897Z" fill="white"/>
<path d="M87.069 59.2069H83.5862V62.6897H87.069V59.2069Z" fill="white"/>
<path d="M97.5172 59.2069H94.0345V62.6897H97.5172V59.2069Z" fill="white"/>
<path d="M3.48276 62.6897H0V66.1724H3.48276V62.6897Z" fill="white"/>
<path d="M6.96552 62.6897H3.48276V66.1724V66.1724C5.40623 66.1724 6.96552 64.6131 6.96552 62.6897V62.6897Z" fill="white"/>
<path d="M13.931 62.6897H10.4483V66.1724H13.931V62.6897Z" fill="white"/>
<path d="M17.4138 62.6897H13.931V66.1724H17.4138V62.6897Z" fill="white"/>
<path d="M20.8966 62.6897H17.4138V66.1724H20.8966V62.6897Z" fill="white"/>
<path d="M24.3793 62.6897H20.8966V66.1724H24.3793V62.6897Z" fill="white"/>
<path d="M27.8621 62.6897H24.3793V66.1724H27.8621V62.6897Z" fill="white"/>
<path d="M31.3448 66.1724C31.3448 64.2489 29.7855 62.6897 27.8621 62.6897V62.6897V66.1724H31.3448V66.1724Z" fill="white"/>
<path d="M52.2414 62.6897H48.7586V66.1724H52.2414V62.6897Z" fill="white"/>
<path d="M55.7241 62.6897H52.2414V66.1724V66.1724C54.1649 66.1724 55.7241 64.6131 55.7241 62.6897V62.6897Z" fill="white"/>
<path d="M69.6552 62.6897H66.1724V66.1724H69.6552V62.6897Z" fill="white"/>
<path d="M83.5862 62.6897H81.8448C80.8831 62.6897 80.1034 63.4693 80.1034 64.431V64.431C80.1034 65.3928 80.8831 66.1724 81.8448 66.1724H83.5862V62.6897Z" fill="white"/>
<path d="M87.069 62.6897H83.5862V66.1724H87.069V62.6897Z" fill="white"/>
<path d="M97.5172 62.6897H94.0345V66.1724H97.5172V62.6897Z" fill="white"/>
<path d="M101 64.431C101 63.4693 100.22 62.6897 99.2586 62.6897H97.5172V66.1724H99.2586C100.22 66.1724 101 65.3928 101 64.431V64.431Z" fill="white"/>
<path d="M3.48276 66.1724H0V67.9138C0 68.8755 0.779642 69.6552 1.74138 69.6552V69.6552C2.70312 69.6552 3.48276 68.8755 3.48276 67.9138V66.1724Z" fill="white"/>
<path d="M13.931 66.1724H10.4483V69.6552V69.6552C12.3718 69.6552 13.931 68.0959 13.931 66.1724V66.1724Z" fill="white"/>
<path d="M20.8966 66.1724H17.4138V66.1724C17.4138 68.0959 18.9731 69.6552 20.8966 69.6552V69.6552V66.1724Z" fill="white"/>
<path d="M27.8621 66.1724H24.3793V69.6552H27.8621V66.1724Z" fill="white"/>
<path d="M31.3448 66.1724H27.8621V69.6552H31.3448V66.1724Z" fill="white"/>
<path d="M38.3103 67.9138C38.3103 66.9521 37.5307 66.1724 36.569 66.1724V66.1724C35.6072 66.1724 34.8276 66.9521 34.8276 67.9138V69.6552H38.3103V67.9138Z" fill="white"/>
<path d="M45.2759 66.1724V66.1724C43.3524 66.1724 41.7931 67.7317 41.7931 69.6552V69.6552H45.2759V66.1724Z" fill="white"/>
<path d="M48.7586 66.1724H45.2759V69.6552V69.6552C47.1993 69.6552 48.7586 68.0959 48.7586 66.1724V66.1724Z" fill="white"/>
<path d="M69.6552 66.1724H66.1724V69.6552H69.6552V66.1724Z" fill="white"/>
<path d="M76.6207 67.9138C76.6207 66.9521 75.841 66.1724 74.8793 66.1724V66.1724C73.9176 66.1724 73.1379 66.9521 73.1379 67.9138V69.6552H76.6207V67.9138Z" fill="white"/>
<path d="M90.5517 69.6552C90.5517 67.7317 88.9924 66.1724 87.069 66.1724V66.1724V69.6552H90.5517V69.6552Z" fill="white"/>
<path d="M97.5172 66.1724H94.0345V69.6552H97.5172V66.1724Z" fill="white"/>
<path d="M10.4483 69.6552H8.7069C7.74516 69.6552 6.96552 70.4348 6.96552 71.3966V71.3966C6.96552 72.3583 7.74516 73.1379 8.7069 73.1379V73.1379C9.66863 73.1379 10.4483 72.3583 10.4483 71.3966V69.6552Z" fill="white"/>
<path d="M24.3793 69.6552H20.8966V69.6552C20.8966 71.5786 22.4558 73.1379 24.3793 73.1379V73.1379V69.6552Z" fill="white"/>
<path d="M27.8621 69.6552H24.3793V73.1379H27.8621V69.6552Z" fill="white"/>
<path d="M34.8276 69.6552H31.3448V73.1379H34.8276V69.6552Z" fill="white"/>
<path d="M38.3103 69.6552H34.8276V73.1379H38.3103V69.6552Z" fill="white"/>
<path d="M45.2759 69.6552H41.7931V73.1379H45.2759V69.6552Z" fill="white"/>
<path d="M55.7241 69.6552V69.6552C53.8007 69.6552 52.2414 71.2145 52.2414 73.1379V73.1379H55.7241V69.6552Z" fill="white"/>
<path d="M59.2069 73.1379C59.2069 71.2145 57.6476 69.6552 55.7241 69.6552V69.6552V73.1379H59.2069V73.1379Z" fill="white"/>
<path d="M69.6552 69.6552H66.1724V73.1379H69.6552V69.6552Z" fill="white"/>
<path d="M73.1379 69.6552H69.6552V73.1379H73.1379V69.6552Z" fill="white"/>
<path d="M76.6207 69.6552H73.1379V73.1379H76.6207V69.6552Z" fill="white"/>
<path d="M80.1034 69.6552H76.6207V73.1379H80.1034V69.6552Z" fill="white"/>
<path d="M83.5862 69.6552H80.1034V73.1379H83.5862V69.6552Z" fill="white"/>
<path d="M87.069 69.6552H83.5862V73.1379H87.069V69.6552Z" fill="white"/>
<path d="M94.0345 69.6552H90.5517V73.1379H94.0345V69.6552Z" fill="white"/>
<path d="M97.5172 69.6552H94.0345V73.1379H97.5172V69.6552Z" fill="white"/>
<path d="M101 73.1379C101 71.2145 99.4407 69.6552 97.5172 69.6552V69.6552V73.1379H101V73.1379Z" fill="white"/>
<path d="M31.3448 73.1379H27.8621V73.1379C27.8621 75.0614 29.4214 76.6207 31.3448 76.6207V76.6207V73.1379Z" fill="white"/>
<path d="M34.8276 73.1379H31.3448V76.6207H34.8276V73.1379Z" fill="white"/>
<path d="M38.3103 73.1379H34.8276V76.6207H38.3103V73.1379Z" fill="white"/>
<path d="M41.7931 73.1379H38.3103V76.6207H41.7931V73.1379Z" fill="white"/>
<path d="M45.2759 73.1379H41.7931V76.6207H45.2759V73.1379Z" fill="white"/>
<path d="M48.7586 73.1379H45.2759V76.6207H48.7586V73.1379Z" fill="white"/>
<path d="M52.2414 73.1379H48.7586V76.6207H52.2414V73.1379Z" fill="white"/>
<path d="M55.7241 73.1379H52.2414V76.6207H55.7241V73.1379Z" fill="white"/>
<path d="M59.2069 73.1379H55.7241V76.6207H59.2069V73.1379Z" fill="white"/>
<path d="M62.6897 73.1379H59.2069V76.6207H62.6897V73.1379Z" fill="white"/>
<path d="M66.1724 73.1379H62.6897V76.6207H66.1724V73.1379Z" fill="white"/>
<path d="M73.1379 73.1379H69.6552V76.6207H73.1379V73.1379Z" fill="white"/>
<path d="M87.069 73.1379H83.5862V76.6207H87.069V73.1379Z" fill="white"/>
<path d="M94.0345 73.1379H90.5517V76.6207H94.0345V73.1379Z" fill="white"/>
<path d="M97.5172 73.1379H94.0345V76.6207H97.5172V73.1379Z" fill="white"/>
<path d="M101 73.1379H97.5172V76.6207H101V73.1379Z" fill="white"/>
<path d="M3.48276 76.6207V76.6207C1.55928 76.6207 0 78.18 0 80.1034V80.1034H3.48276V76.6207Z" fill="white"/>
<path d="M6.96552 76.6207H3.48276V80.1034H6.96552V76.6207Z" fill="white"/>
<path d="M10.4483 76.6207H6.96552V80.1034H10.4483V76.6207Z" fill="white"/>
<path d="M13.931 76.6207H10.4483V80.1034H13.931V76.6207Z" fill="white"/>
<path d="M17.4138 76.6207H13.931V80.1034H17.4138V76.6207Z" fill="white"/>
<path d="M20.8966 76.6207H17.4138V80.1034H20.8966V76.6207Z" fill="white"/>
<path d="M24.3793 80.1034C24.3793 78.18 22.82 76.6207 20.8966 76.6207V76.6207V80.1034H24.3793V80.1034Z" fill="white"/>
<path d="M34.8276 76.6207H31.3448V80.1034H34.8276V76.6207Z" fill="white"/>
<path d="M45.2759 76.6207H41.7931V78.3621C41.7931 79.3238 42.5727 80.1034 43.5345 80.1034V80.1034C44.4962 80.1034 45.2759 79.3238 45.2759 78.3621V76.6207Z" fill="white"/>
<path d="M52.2414 76.6207H48.7586V76.6207C48.7586 78.5442 50.3179 80.1034 52.2414 80.1034V80.1034V76.6207Z" fill="white"/>
<path d="M62.6897 76.6207H59.2069V80.1034H62.6897V76.6207Z" fill="white"/>
<path d="M66.1724 76.6207H62.6897V80.1034H66.1724V76.6207Z" fill="white"/>
<path d="M69.6552 76.6207H66.1724V80.1034H69.6552V76.6207Z" fill="white"/>
<path d="M73.1379 76.6207H69.6552V80.1034H73.1379V76.6207Z" fill="white"/>
<path d="M80.1034 78.3621C80.1034 77.4003 79.3238 76.6207 78.3621 76.6207V76.6207C77.4003 76.6207 76.6207 77.4003 76.6207 78.3621V78.3621C76.6207 79.3238 77.4003 80.1034 78.3621 80.1034V80.1034C79.3238 80.1034 80.1034 79.3238 80.1034 78.3621V78.3621Z" fill="white"/>
<path d="M87.069 76.6207H83.5862V80.1034H87.069V76.6207Z" fill="white"/>
<path d="M90.5517 76.6207H87.069V80.1034V80.1034C88.9924 80.1034 90.5517 78.5442 90.5517 76.6207V76.6207Z" fill="white"/>
<path d="M101 76.6207H97.5172V80.1034H101V76.6207Z" fill="white"/>
<path d="M3.48276 80.1034H0V83.5862H3.48276V80.1034Z" fill="white"/>
<path d="M24.3793 80.1034H20.8966V83.5862H24.3793V80.1034Z" fill="white"/>
<path d="M31.3448 80.1034H29.6035C28.6417 80.1034 27.8621 80.8831 27.8621 81.8448V81.8448C27.8621 82.8066 28.6417 83.5862 29.6034 83.5862V83.5862C30.5652 83.5862 31.3448 82.8066 31.3448 81.8448V80.1034Z" fill="white"/>
<path d="M38.3103 83.5862C38.3103 81.6627 36.7511 80.1034 34.8276 80.1034V80.1034V83.5862H38.3103V83.5862Z" fill="white"/>
<path d="M55.7241 81.8448C55.7241 80.8831 54.9445 80.1034 53.9828 80.1034H52.2414V81.8448C52.2414 82.8066 53.021 83.5862 53.9828 83.5862V83.5862C54.9445 83.5862 55.7241 82.8066 55.7241 81.8448V81.8448Z" fill="white"/>
<path d="M62.6897 80.1034H59.2069V80.1034C59.2069 82.0269 60.7662 83.5862 62.6897 83.5862V83.5862V80.1034Z" fill="white"/>
<path d="M66.1724 80.1034H62.6897V83.5862H66.1724V80.1034Z" fill="white"/>
<path d="M73.1379 80.1034H69.6552V83.5862H73.1379V80.1034Z" fill="white"/>
<path d="M87.069 80.1034H83.5862V83.5862H87.069V80.1034Z" fill="white"/>
<path d="M97.5172 80.1034V80.1034C95.5938 80.1034 94.0345 81.6627 94.0345 83.5862V83.5862H97.5172V80.1034Z" fill="white"/>
<path d="M101 80.1034H97.5172V83.5862V83.5862C99.4407 83.5862 101 82.0269 101 80.1034V80.1034Z" fill="white"/>
<path d="M3.48276 83.5862H0V87.069H3.48276V83.5862Z" fill="white"/>
<path d="M10.4483 83.5862V83.5862C8.52481 83.5862 6.96552 85.1455 6.96552 87.069V87.069H10.4483V83.5862Z" fill="white"/>
<path d="M13.931 83.5862H10.4483V87.069H13.931V83.5862Z" fill="white"/>
<path d="M17.4138 87.069C17.4138 85.1455 15.8545 83.5862 13.931 83.5862V83.5862V87.069H17.4138V87.069Z" fill="white"/>
<path d="M24.3793 83.5862H20.8966V87.069H24.3793V83.5862Z" fill="white"/>
<path d="M38.3103 83.5862H34.8276V87.069H38.3103V83.5862Z" fill="white"/>
<path d="M41.7931 87.069C41.7931 85.1455 40.2338 83.5862 38.3103 83.5862V83.5862V87.069H41.7931V87.069Z" fill="white"/>
<path d="M66.1724 83.5862H62.6897V87.069V87.069C64.6131 87.069 66.1724 85.5097 66.1724 83.5862V83.5862Z" fill="white"/>
<path d="M73.1379 83.5862H69.6552V83.5862C69.6552 85.5097 71.2145 87.069 73.1379 87.069V87.069V83.5862Z" fill="white"/>
<path d="M76.6207 83.5862H73.1379V87.069H76.6207V83.5862Z" fill="white"/>
<path d="M80.1034 83.5862H76.6207V87.069H80.1034V83.5862Z" fill="white"/>
<path d="M83.5862 83.5862H80.1034V87.069H83.5862V83.5862Z" fill="white"/>
<path d="M87.069 83.5862H83.5862V87.069H87.069V83.5862Z" fill="white"/>
<path d="M90.5517 83.5862H87.069V87.069H90.5517V83.5862Z" fill="white"/>
<path d="M94.0345 83.5862H90.5517V87.069H94.0345V83.5862Z" fill="white"/>
<path d="M3.48276 87.069H0V90.5517H3.48276V87.069Z" fill="white"/>
<path d="M10.4483 87.069H6.96552V90.5517H10.4483V87.069Z" fill="white"/>
<path d="M13.931 87.069H10.4483V90.5517H13.931V87.069Z" fill="white"/>
<path d="M17.4138 87.069H13.931V90.5517H17.4138V87.069Z" fill="white"/>
<path d="M24.3793 87.069H20.8966V90.5517H24.3793V87.069Z" fill="white"/>
<path d="M34.8276 87.069H33.0862C32.1245 87.069 31.3448 87.8486 31.3448 88.8103V88.8103C31.3448 89.7721 32.1245 90.5517 33.0862 90.5517H34.8276V87.069Z" fill="white"/>
<path d="M38.3103 87.069H34.8276V90.5517H38.3103V87.069Z" fill="white"/>
<path d="M45.2759 88.8103C45.2759 87.8486 44.4962 87.069 43.5345 87.069H41.7931V90.5517H43.5345C44.4962 90.5517 45.2759 89.7721 45.2759 88.8103V88.8103Z" fill="white"/>
<path d="M52.2414 87.069V87.069C50.3179 87.069 48.7586 88.6283 48.7586 90.5517V90.5517H52.2414V87.069Z" fill="white"/>
<path d="M55.7241 88.8103C55.7241 87.8486 54.9445 87.069 53.9828 87.069H52.2414V90.5517H53.9828C54.9445 90.5517 55.7241 89.7721 55.7241 88.8103V88.8103Z" fill="white"/>
<path d="M62.6897 87.069H60.9483C59.9865 87.069 59.2069 87.8486 59.2069 88.8103V88.8103C59.2069 89.7721 59.9865 90.5517 60.9483 90.5517V90.5517C61.91 90.5517 62.6897 89.7721 62.6897 88.8103V87.069Z" fill="white"/>
<path d="M83.5862 87.069H80.1034V90.5517H83.5862V87.069Z" fill="white"/>
<path d="M90.5517 87.069H87.069V90.5517H90.5517V87.069Z" fill="white"/>
<path d="M94.0345 87.069H90.5517V90.5517H94.0345V87.069Z" fill="white"/>
<path d="M101 88.8103C101 87.8486 100.22 87.069 99.2586 87.069V87.069C98.2969 87.069 97.5172 87.8486 97.5172 88.8103V88.8103C97.5172 89.7721 98.2969 90.5517 99.2586 90.5517V90.5517C100.22 90.5517 101 89.7721 101 88.8103V88.8103Z" fill="white"/>
<path d="M3.48276 90.5517H0V94.0345H3.48276V90.5517Z" fill="white"/>
<path d="M10.4483 90.5517H6.96552V90.5517C6.96552 92.4752 8.52481 94.0345 10.4483 94.0345V94.0345V90.5517Z" fill="white"/>
<path d="M13.931 90.5517H10.4483V94.0345H13.931V90.5517Z" fill="white"/>
<path d="M17.4138 90.5517H13.931V94.0345V94.0345C15.8545 94.0345 17.4138 92.4752 17.4138 90.5517V90.5517Z" fill="white"/>
<path d="M24.3793 90.5517H20.8966V94.0345H24.3793V90.5517Z" fill="white"/>
<path d="M38.3103 90.5517H34.8276V94.0345H38.3103V90.5517Z" fill="white"/>
<path d="M41.7931 90.5517H38.3103V94.0345H41.7931V90.5517Z" fill="white"/>
<path d="M52.2414 90.5517H48.7586V94.0345H52.2414V90.5517Z" fill="white"/>
<path d="M73.1379 90.5517V90.5517C71.2145 90.5517 69.6552 92.111 69.6552 94.0345V94.0345H73.1379V90.5517Z" fill="white"/>
<path d="M76.6207 94.0345C76.6207 92.111 75.0614 90.5517 73.1379 90.5517V90.5517V94.0345H76.6207V94.0345Z" fill="white"/>
<path d="M83.5862 90.5517H80.1034V94.0345H83.5862V90.5517Z" fill="white"/>
<path d="M90.5517 90.5517H87.069V94.0345H90.5517V90.5517Z" fill="white"/>
<path d="M94.0345 90.5517H90.5517V94.0345H94.0345V90.5517Z" fill="white"/>
<path d="M3.48276 94.0345H0V97.5172H3.48276V94.0345Z" fill="white"/>
<path d="M24.3793 94.0345H20.8966V97.5172H24.3793V94.0345Z" fill="white"/>
<path d="M38.3103 94.0345H34.8276V97.5172H38.3103V94.0345Z" fill="white"/>
<path d="M41.7931 94.0345H38.3103V97.5172H41.7931V94.0345Z" fill="white"/>
<path d="M45.2759 97.5172C45.2759 95.5938 43.7166 94.0345 41.7931 94.0345V94.0345V97.5172H45.2759V97.5172Z" fill="white"/>
<path d="M52.2414 94.0345H48.7586V97.5172H52.2414V94.0345Z" fill="white"/>
<path d="M55.7241 94.0345H52.2414V97.5172H55.7241V94.0345Z" fill="white"/>
<path d="M59.2069 97.5172C59.2069 95.5938 57.6476 94.0345 55.7241 94.0345V94.0345V97.5172H59.2069V97.5172Z" fill="white"/>
<path d="M66.1724 94.0345V94.0345C64.2489 94.0345 62.6897 95.5938 62.6897 97.5172V97.5172H66.1724V94.0345Z" fill="white"/>
<path d="M69.6552 94.0345H66.1724V97.5172H69.6552V94.0345Z" fill="white"/>
<path d="M76.6207 94.0345H73.1379V97.5172H76.6207V94.0345Z" fill="white"/>
<path d="M80.1034 94.0345H76.6207V97.5172V97.5172C78.5442 97.5172 80.1034 95.958 80.1034 94.0345V94.0345Z" fill="white"/>
<path d="M87.069 94.0345H83.5862V94.0345C83.5862 95.9579 85.1455 97.5172 87.069 97.5172V97.5172V94.0345Z" fill="white"/>
<path d="M97.5172 94.0345H94.0345V97.5172H97.5172V94.0345Z" fill="white"/>
<path d="M101 95.7759C101 94.8141 100.22 94.0345 99.2586 94.0345H97.5172V97.5172H99.2586C100.22 97.5172 101 96.7376 101 95.7759V95.7759Z" fill="white"/>
<path d="M3.48276 97.5172H0V97.5172C0 99.4407 1.55928 101 3.48276 101V101V97.5172Z" fill="white"/>
<path d="M6.96552 97.5172H3.48276V101H6.96552V97.5172Z" fill="white"/>
<path d="M10.4483 97.5172H6.96552V101H10.4483V97.5172Z" fill="white"/>
<path d="M13.931 97.5172H10.4483V101H13.931V97.5172Z" fill="white"/>
<path d="M17.4138 97.5172H13.931V101H17.4138V97.5172Z" fill="white"/>
<path d="M20.8966 97.5172H17.4138V101H20.8966V97.5172Z" fill="white"/>
<path d="M24.3793 97.5172H20.8966V101V101C22.82 101 24.3793 99.4407 24.3793 97.5172V97.5172Z" fill="white"/>
<path d="M34.8276 97.5172H33.0862C32.1245 97.5172 31.3448 98.2969 31.3448 99.2586V99.2586C31.3448 100.22 32.1245 101 33.0862 101V101C34.0479 101 34.8276 100.22 34.8276 99.2586V97.5172Z" fill="white"/>
<path d="M45.2759 97.5172H41.7931V99.2586C41.7931 100.22 42.5727 101 43.5345 101V101C44.4962 101 45.2759 100.22 45.2759 99.2586V97.5172Z" fill="white"/>
<path d="M52.2414 97.5172H48.7586V99.2586C48.7586 100.22 49.5383 101 50.5 101V101C51.4617 101 52.2414 100.22 52.2414 99.2586V97.5172Z" fill="white"/>
<path d="M62.6897 97.5172H59.2069V97.5172C59.2069 99.4407 60.7662 101 62.6897 101V101V97.5172Z" fill="white"/>
<path d="M66.1724 97.5172H62.6897V101H66.1724V97.5172Z" fill="white"/>
<path d="M69.6552 97.5172H66.1724V101V101C68.0959 101 69.6552 99.4407 69.6552 97.5172V97.5172Z" fill="white"/>
<path d="M76.6207 97.5172H73.1379V99.2586C73.1379 100.22 73.9176 101 74.8793 101V101C75.841 101 76.6207 100.22 76.6207 99.2586V97.5172Z" fill="white"/>
<path d="M90.5517 97.5172H87.069V97.5172C87.069 99.4407 88.6283 101 90.5517 101V101V97.5172Z" fill="white"/>
<path d="M94.0345 97.5172H90.5517V101V101C92.4752 101 94.0345 99.4407 94.0345 97.5172V97.5172Z" fill="white"/>
</svg>
